<svg width="19" height="18" viewBox="0 0 19 18" fill="none" xmlns="http://www.w3.org/2000/svg">
<path fill-rule="evenodd" clip-rule="evenodd" d="M18.8088 15.5879L10.9835 0.882857C10.6945 0.340082 10.1232 0 9.50042 0C8.87767 0 8.30637 0.340082 8.01732 0.882857L0.191159 15.5879C-0.0807366 16.0987 -0.06149 16.7121 0.241906 17.2055C0.545303 17.6988 1.0887 18.0001 1.67468 18H17.3253C17.9113 18.0001 18.4547 17.6988 18.7581 17.2055C19.0615 16.7121 19.0807 16.0987 18.8088 15.5879ZM8.6628 6.05066C8.6628 5.59568 9.03763 5.22685 9.5 5.22685C9.96237 5.22685 10.3372 5.59568 10.3372 6.05066V10.9935C10.3372 11.4485 9.96237 11.8173 9.5 11.8173C9.03763 11.8173 8.6628 11.4485 8.6628 10.9935V6.05066ZM9.51842 15.5327H9.54186C9.87431 15.5274 10.1905 15.3904 10.419 15.1527C10.6475 14.915 10.7689 14.5967 10.7558 14.2698C10.7289 13.5954 10.1658 13.0621 9.47991 13.0613H9.45647C9.12484 13.0672 8.80957 13.2041 8.58158 13.4412C8.35358 13.6783 8.23201 13.9955 8.2442 14.3217C8.27024 14.9963 8.8324 15.5305 9.51842 15.5327Z" fill="#F23005"/>
</svg>
