<svg width="142" height="58" viewBox="0 0 142 58" fill="none" xmlns="http://www.w3.org/2000/svg">
<g clip-path="url(#clip0_415:594)">
<path d="M0 5.06152C0.0415205 4.85408 0.124561 4.68813 0.166082 4.48069C0.747368 2.07439 2.57427 0.331902 5.0655 0.0829749C6.97544 -0.0829765 8.9269 -0.0829765 10.8368 0.0829749C13.5772 0.414878 15.6947 2.65522 15.7778 5.47639C15.8608 9.37625 15.8193 13.2761 15.8193 17.176C15.8193 17.2175 15.7778 17.2589 15.7778 17.3004C13.8263 17.3004 11.8749 17.3004 9.88187 17.3004C9.88187 13.525 9.88187 9.83262 9.88187 6.05722C8.55322 6.05722 7.3076 6.05722 6.02047 6.05722C6.02047 21.3662 6.02047 36.6752 6.02047 52.0257C7.3076 52.0257 8.55322 52.0257 9.88187 52.0257C9.88187 48.2918 9.88187 44.5579 9.88187 40.7825C11.9164 40.7825 13.8263 40.7825 15.8608 40.7825C15.8608 40.99 15.8608 41.1974 15.8608 41.3634C15.8608 44.8898 15.8608 48.3748 15.8608 51.9013C15.8608 55.5107 13.3696 58 9.75731 58C8.5117 58 7.26608 58 6.02047 58C2.98947 58 0.705848 56.133 0.124561 53.1459C0.124561 53.0629 0.0830409 53.0215 0.0415205 52.9385C0 36.9657 0 21.0343 0 5.06152Z" fill="#3A66E1"/>
<path d="M82.5012 30.0372C82.5012 20.0801 82.5012 10.0815 82.5012 0.0829773C84.4527 0.0829773 86.4041 0.0829773 88.3556 0.0829773C88.3556 19.3748 88.3556 38.6667 88.3556 57.9585C86.6532 57.9585 84.9924 57.9585 83.2486 57.9585C81.3386 47.628 79.4702 37.2561 77.5603 26.9256C77.5187 26.9256 77.4772 26.9256 77.4357 26.9256C77.4357 37.2561 77.4357 47.5865 77.4357 57.9585C75.4427 57.9585 73.5328 57.9585 71.5398 57.9585C71.5398 38.6667 71.5398 19.4163 71.5398 0.0829773C73.2837 0.0829773 75.069 0.0829773 76.8959 0.0829773C78.7228 10.0401 80.5497 20.0386 82.4182 30.0372C82.4597 30.0372 82.4597 30.0372 82.5012 30.0372Z" fill="#3A66E1"/>
<path d="M109.074 26.3033C109.074 26.5107 109.074 26.6767 109.074 26.8841C109.074 35.2647 109.074 43.6867 109.074 52.0672C109.074 54.9299 107.372 57.1702 104.756 57.834C104.299 57.9585 103.801 58 103.303 58C101.933 58.0415 100.521 58 99.1094 58C95.7047 58 93.255 55.5522 93.255 52.1502C93.255 44.1431 93.255 36.1774 93.255 28.1702C93.255 20.7439 93.255 13.3591 93.255 5.93275C93.255 3.27753 94.7497 1.12017 97.1164 0.331897C97.5731 0.165946 98.0299 0.0829699 98.5281 0.0414821C100.272 -5.7579e-06 102.057 -0.0414936 103.801 0.0414821C106.625 0.207433 108.908 2.40629 109.033 5.26895C109.157 9.25178 109.074 13.2346 109.074 17.2589C107.123 17.2589 105.171 17.2589 103.178 17.2589C103.178 13.525 103.178 9.79112 103.178 6.01573C101.85 6.01573 100.604 6.01573 99.2755 6.01573C99.2755 21.3247 99.2755 36.6338 99.2755 51.9428C100.563 51.9428 101.808 51.9428 103.095 51.9428C103.095 45.3462 103.095 38.7911 103.095 32.1531C102.473 32.1531 101.891 32.1531 101.227 32.1531C101.227 30.1617 101.227 28.2117 101.227 26.2203C103.843 26.3033 106.417 26.3033 109.074 26.3033Z" fill="#3A66E1"/>
<path d="M67.3046 57.9585C65.3531 57.9585 63.4017 57.9585 61.4502 57.9585C61.4502 38.6667 61.4502 19.3748 61.4502 0.0829773C63.4017 0.0829773 65.3531 0.0829773 67.3046 0.0829773C67.3046 19.3748 67.3046 38.6252 67.3046 57.9585Z" fill="#3A66E1"/>
<path d="M56.6755 6.51359C56.6755 5.97424 56.6339 5.4349 56.5509 4.93705C56.0942 2.28183 54.0181 0.248922 51.4854 0.082971C50.0322 -0.0414925 48.579 0.0414831 47.0842 0.0414831C45.0912 0.0414831 43.0567 0.0414831 40.9807 0.0414831C40.9807 19.3748 40.9807 38.6667 40.9807 57.9585C44.51 57.9585 47.9977 58 51.4854 57.917C52.1497 57.917 52.8556 57.6681 53.4369 57.3362C55.7205 56.0915 56.6339 54.0172 56.6339 51.4864C56.6754 36.5093 56.6755 21.5322 56.6755 6.51359ZM50.7795 52.0257C49.4924 52.0257 48.2468 52.0257 46.9597 52.0257C46.9597 36.7167 46.9597 21.4077 46.9597 6.05722C48.2053 6.05722 49.4924 6.05722 50.7795 6.05722C50.7795 21.3662 50.7795 36.6338 50.7795 52.0257Z" fill="#3A66E1"/>
<path d="M36.2474 6.01574C36.2474 5.60086 36.2059 5.18598 36.1644 4.7711C35.7907 2.32332 33.7977 0.290415 31.348 0.124464C29.3135 -0.0414878 27.2375 -0.0414878 25.203 0.124464C22.9609 0.290415 21.5076 1.65951 20.8018 3.69242C20.5527 4.4392 20.4696 5.31044 20.4696 6.09871C20.4281 13.7325 20.4696 21.3662 20.4696 28.9585C20.4696 36.5508 20.4696 44.1845 20.4696 51.7768C20.4696 52.2747 20.5111 52.814 20.5942 53.3119C21.0094 56.0086 23.21 57.917 25.9503 57.9585C27.5696 57.9585 29.1889 57.9585 30.8497 57.9585C31.7217 57.9585 32.5521 57.7926 33.341 57.3362C35.417 56.133 36.3304 54.2661 36.3304 51.9428C36.2474 36.6752 36.2474 21.3247 36.2474 6.01574ZM30.2685 51.9843C28.9813 51.9843 27.7357 51.9843 26.4071 51.9843C26.4071 36.6752 26.4071 21.3662 26.4071 6.01574C27.6942 6.01574 28.9398 6.01574 30.2685 6.01574C30.2685 21.3662 30.2685 36.6752 30.2685 51.9843Z" fill="#3A66E1"/>
<path d="M131.412 9.12732C130.374 9.12732 129.378 9.12732 128.34 9.12732C128.34 7.17739 128.34 5.26895 128.34 3.27754C127.675 3.27754 127.011 3.27754 126.305 3.27754C126.305 11.2017 126.305 17.0515 126.305 25.0172C126.97 25.0172 127.634 25.0172 128.298 25.0172C128.298 23.0672 128.298 21.1588 128.298 19.2089C129.336 19.2089 130.333 19.2089 131.371 19.2089C131.371 19.2504 131.412 19.3333 131.412 19.3748C131.412 21.2833 131.412 23.1917 131.412 25.1001C131.412 26.8011 130.084 28.1288 128.381 28.1288C127.675 28.1288 126.97 28.1288 126.264 28.1288C126.015 28.1288 125.766 28.0873 125.516 28.0458C124.229 27.7139 123.274 26.5522 123.233 25.2246C123.233 25.1416 123.233 25.1001 123.233 25.0172C123.233 17.093 123.233 11.2432 123.233 3.27754C123.233 1.99141 123.773 0.995706 124.977 0.456364C125.226 0.3319 125.558 0.207437 125.849 0.207437C126.845 0.165949 127.842 0.124461 128.838 0.207437C130.291 0.3319 131.371 1.49356 131.412 2.94563C131.454 4.97854 131.412 7.05293 131.412 9.12732Z" fill="#3A66E1"/>
<path d="M142 3.23605C142 3.02861 141.958 2.82117 141.958 2.61373C141.751 1.32761 140.713 0.290412 139.467 0.207437C138.429 0.124461 137.391 0.165949 136.353 0.207437C135.689 0.248925 135.108 0.539339 134.651 1.03719C134.07 1.65951 133.82 2.44778 133.862 3.27754C133.862 7.26037 133.862 4.97854 133.862 8.96137C133.862 12.9027 133.862 20.9928 133.862 24.9342C133.862 25.1831 133.862 25.432 133.904 25.681C134.111 27.0916 135.232 28.0873 136.685 28.0873C137.516 28.0873 138.388 28.0873 139.218 28.0873C139.675 28.0873 140.09 28.0043 140.505 27.7554C141.543 27.133 142.042 26.1788 142.042 25.0172C142 17.093 142 11.2017 142 3.23605ZM138.886 25.0172C138.222 25.0172 137.557 25.0172 136.893 25.0172C136.893 17.093 136.893 11.2432 136.893 3.27754C137.557 3.27754 138.222 3.27754 138.886 3.27754C138.886 11.2432 138.886 17.093 138.886 25.0172Z" fill="#3A66E1"/>
<path d="M119.662 6.59657C119.662 8.33906 119.662 9.99857 119.662 11.7411C119.953 11.7411 120.243 11.7411 120.575 11.7411C120.575 12.5708 120.575 13.3591 120.575 14.1888C120.285 14.1888 119.994 14.1888 119.704 14.1888C119.704 17.7983 119.704 21.3662 119.704 24.9757C119.579 24.9757 119.454 24.9757 119.371 24.9757C118.25 24.9757 117.129 24.9342 116.008 24.9757C114.514 25.0172 113.143 23.814 113.143 22.113C113.143 19.7482 113.143 17.3834 113.143 15.0601C113.143 14.2718 113.392 13.5665 113.849 12.9442C113.185 12.1145 113.102 11.1602 113.102 10.206C113.102 8.04865 113.102 5.89128 113.102 3.7754C113.102 2.44779 113.891 1.41059 115.095 1.0372C115.219 0.995711 115.344 0.954224 115.468 0.954224C116.839 0.954224 118.209 0.954224 119.621 0.954224C119.621 1.74249 119.621 2.53076 119.621 3.40201C119.496 3.40201 119.371 3.40201 119.288 3.40201C118.209 3.40201 117.129 3.40201 116.091 3.40201C115.635 3.40201 115.593 3.44349 115.593 3.89986C115.593 6.22318 115.593 8.50501 115.593 10.8283C115.593 11.4921 115.884 11.7826 116.59 11.7826C116.797 11.7826 116.963 11.7826 117.212 11.7826C117.212 11.6166 117.212 11.4921 117.212 11.3677C117.212 9.9156 117.212 8.46352 117.212 6.96996C117.212 6.67955 117.295 6.59657 117.545 6.63806C118.25 6.59657 118.956 6.59657 119.662 6.59657ZM117.212 22.5279C117.212 19.7482 117.212 16.9685 117.212 14.1474C117.046 14.1474 116.88 14.1474 116.714 14.1474C115.884 14.1474 115.635 14.3963 115.635 15.226C115.635 17.4664 115.635 19.7067 115.635 21.9471C115.635 22.03 115.593 22.1545 115.635 22.2375C115.718 22.3619 115.801 22.5279 115.925 22.5279C116.34 22.5694 116.756 22.5279 117.212 22.5279Z" fill="#3A66E1"/>
<path d="M119.662 29.0415C117.503 29.0415 115.344 29.0415 113.143 29.0415C113.143 28.2532 113.143 27.4235 113.143 26.5937C115.302 26.5937 117.461 26.5937 119.662 26.5937C119.662 27.4235 119.662 28.2117 119.662 29.0415Z" fill="#3A66E1"/>
</g>
<defs>
<clipPath id="clip0_415:594">
<rect width="142" height="58" fill="white"/>
</clipPath>
</defs>
</svg>
